<svg width="377" height="353" viewBox="0 0 377 353" fill="none" xmlns="http://www.w3.org/2000/svg">
<g filter="url(#filter0_d_430_23)">
<ellipse cx="168.385" cy="172.657" rx="8.91389" ry="16.6573" fill="#989898"/>
</g>
<g filter="url(#filter1_d_430_23)">
<ellipse cx="208.362" cy="172.657" rx="8.91389" ry="16.6573" fill="#989898"/>
</g>
<path d="M207.385 198.957C207.385 200.445 203.273 201.651 198.201 201.651C193.128 201.651 189.017 200.445 189.017 198.957L189.017 196.498C189.017 194.317 195.059 196.498 198.201 196.498C201.342 196.498 207.385 194.38 207.385 196.498V198.957Z" fill="#989898"/>
<path d="M201.103 197.851C201.103 196.363 205.215 195.157 210.287 195.157C215.359 195.157 219.471 196.363 219.471 197.851V200.311C219.471 202.491 213.428 200.311 210.287 200.311C207.145 200.311 201.103 202.428 201.103 200.311V197.851Z" fill="#989898"/>
<path d="M173.145 198.957C173.145 200.445 177.257 201.651 182.329 201.651C187.401 201.651 191.513 200.445 191.513 198.957V196.498C191.513 194.317 185.471 196.498 182.329 196.498C179.188 196.498 173.145 194.38 173.145 196.498V198.957Z" fill="#989898"/>
<path d="M179.427 197.851C179.427 196.363 175.315 195.157 170.243 195.157C165.171 195.157 161.059 196.363 161.059 197.851L161.059 200.311C161.059 202.491 167.102 200.311 170.243 200.311C173.384 200.311 179.427 202.428 179.427 200.311V197.851Z" fill="#989898"/>
<defs>
<filter id="filter0_d_430_23" x="0.270828" y="0.800003" width="336.228" height="351.714" filterUnits="userSpaceOnUse" color-interpolation-filters="sRGB">
<feFlood flood-opacity="0" result="BackgroundImageFix"/>
<feColorMatrix in="SourceAlpha" type="matrix" values="0 0 0 0 0 0 0 0 0 0 0 0 0 0 0 0 0 0 127 0" result="hardAlpha"/>
<feOffset dy="4"/>
<feGaussianBlur stdDeviation="79.6"/>
<feComposite in2="hardAlpha" operator="out"/>
<feColorMatrix type="matrix" values="0 0 0 0 1 0 0 0 0 1 0 0 0 0 1 0 0 0 0.25 0"/>
<feBlend mode="normal" in2="BackgroundImageFix" result="effect1_dropShadow_430_23"/>
<feBlend mode="normal" in="SourceGraphic" in2="effect1_dropShadow_430_23" result="shape"/>
</filter>
<filter id="filter1_d_430_23" x="40.2482" y="0.800003" width="336.228" height="351.714" filterUnits="userSpaceOnUse" color-interpolation-filters="sRGB">
<feFlood flood-opacity="0" result="BackgroundImageFix"/>
<feColorMatrix in="SourceAlpha" type="matrix" values="0 0 0 0 0 0 0 0 0 0 0 0 0 0 0 0 0 0 127 0" result="hardAlpha"/>
<feOffset dy="4"/>
<feGaussianBlur stdDeviation="79.6"/>
<feComposite in2="hardAlpha" operator="out"/>
<feColorMatrix type="matrix" values="0 0 0 0 1 0 0 0 0 1 0 0 0 0 1 0 0 0 0.25 0"/>
<feBlend mode="normal" in2="BackgroundImageFix" result="effect1_dropShadow_430_23"/>
<feBlend mode="normal" in="SourceGraphic" in2="effect1_dropShadow_430_23" result="shape"/>
</filter>
</defs>
</svg>
