<svg width="392" height="392" viewBox="0 0 392 392" fill="none" xmlns="http://www.w3.org/2000/svg">
<g filter="url(#filter0_d_428_643)">
<path d="M260.063 188.505C260.063 223.885 231.381 252.566 196 252.566C160.619 252.566 131.937 223.885 131.937 188.505L131.937 130.027C131.937 78.1852 174.087 130.027 196 130.027C217.913 130.027 260.063 79.6763 260.063 130.027V188.505Z" fill="url(#paint0_linear_428_643)"/>
<path d="M260.063 188.505C260.063 223.885 231.381 252.566 196 252.566C160.619 252.566 131.937 223.885 131.937 188.505L131.937 130.027C131.937 78.1852 174.087 130.027 196 130.027C217.913 130.027 260.063 79.6763 260.063 130.027V188.505Z" fill="#A8A8A8"/>
<path d="M131.937 195.495C131.937 160.115 160.619 131.434 196 131.434C231.381 131.434 260.063 160.115 260.063 195.495V253.973C260.063 305.815 217.913 253.973 196 253.973C174.087 253.973 131.937 304.324 131.937 253.973V195.495Z" fill="url(#paint1_linear_428_643)"/>
<path d="M131.937 195.495C131.937 160.115 160.619 131.434 196 131.434C231.381 131.434 260.063 160.115 260.063 195.495V253.973C260.063 305.815 217.913 253.973 196 253.973C174.087 253.973 131.937 304.324 131.937 253.973V195.495Z" fill="#A8A8A8"/>
<path d="M260.063 188.505C260.063 223.885 231.381 252.566 196 252.566C160.619 252.566 131.937 223.885 131.937 188.505L131.937 130.027C131.937 78.1852 174.087 130.027 196 130.027C217.913 130.027 260.063 79.6763 260.063 130.027V188.505Z" fill="url(#paint2_linear_428_643)"/>
<path d="M260.063 188.505C260.063 223.885 231.381 252.566 196 252.566C160.619 252.566 131.937 223.885 131.937 188.505L131.937 130.027C131.937 78.1852 174.087 130.027 196 130.027C217.913 130.027 260.063 79.6763 260.063 130.027V188.505Z" fill="#A8A8A8"/>
<path d="M131.937 195.495C131.937 160.115 160.619 131.434 196 131.434C231.381 131.434 260.063 160.115 260.063 195.495V253.973C260.063 305.815 217.913 253.973 196 253.973C174.087 253.973 131.937 304.324 131.937 253.973V195.495Z" fill="url(#paint3_linear_428_643)"/>
<path d="M131.937 195.495C131.937 160.115 160.619 131.434 196 131.434C231.381 131.434 260.063 160.115 260.063 195.495V253.973C260.063 305.815 217.913 253.973 196 253.973C174.087 253.973 131.937 304.324 131.937 253.973V195.495Z" fill="#A8A8A8"/>
<path d="M199.495 256.063C164.115 256.063 135.434 227.381 135.434 192C135.434 156.619 164.115 127.937 199.495 127.937L257.973 127.937C309.815 127.937 257.973 170.087 257.973 192C257.973 213.913 308.324 256.063 257.973 256.063H199.495Z" fill="url(#paint4_linear_428_643)"/>
<path d="M199.495 256.063C164.115 256.063 135.434 227.381 135.434 192C135.434 156.619 164.115 127.937 199.495 127.937L257.973 127.937C309.815 127.937 257.973 170.087 257.973 192C257.973 213.913 308.324 256.063 257.973 256.063H199.495Z" fill="#A8A8A8"/>
<path d="M192.505 127.937C227.885 127.937 256.566 156.619 256.566 192C256.566 227.381 227.885 256.063 192.505 256.063H134.027C82.1852 256.063 134.027 213.913 134.027 192C134.027 170.087 83.6763 127.937 134.027 127.937L192.505 127.937Z" fill="url(#paint5_linear_428_643)"/>
<path d="M192.505 127.937C227.885 127.937 256.566 156.619 256.566 192C256.566 227.381 227.885 256.063 192.505 256.063H134.027C82.1852 256.063 134.027 213.913 134.027 192C134.027 170.087 83.6763 127.937 134.027 127.937L192.505 127.937Z" fill="#A8A8A8"/>
<path d="M199.495 256.063C164.115 256.063 135.434 227.381 135.434 192C135.434 156.619 164.115 127.937 199.495 127.937L257.973 127.937C309.815 127.937 257.973 170.087 257.973 192C257.973 213.913 308.324 256.063 257.973 256.063H199.495Z" fill="url(#paint6_linear_428_643)"/>
<path d="M199.495 256.063C164.115 256.063 135.434 227.381 135.434 192C135.434 156.619 164.115 127.937 199.495 127.937L257.973 127.937C309.815 127.937 257.973 170.087 257.973 192C257.973 213.913 308.324 256.063 257.973 256.063H199.495Z" fill="#A8A8A8"/>
<path d="M192.505 127.937C227.885 127.937 256.566 156.619 256.566 192C256.566 227.381 227.885 256.063 192.505 256.063H134.027C82.1852 256.063 134.027 213.913 134.027 192C134.027 170.087 83.6763 127.937 134.027 127.937L192.505 127.937Z" fill="url(#paint7_linear_428_643)"/>
<path d="M192.505 127.937C227.885 127.937 256.566 156.619 256.566 192C256.566 227.381 227.885 256.063 192.505 256.063H134.027C82.1852 256.063 134.027 213.913 134.027 192C134.027 170.087 83.6763 127.937 134.027 127.937L192.505 127.937Z" fill="#A8A8A8"/>
<path d="M243.771 234.828C218.754 259.845 178.192 259.845 153.174 234.826C128.155 209.808 128.155 169.246 153.172 144.229L194.522 102.879C231.18 66.2212 224.327 132.684 239.822 148.178C255.316 163.673 320.724 157.875 285.121 193.478L243.771 234.828Z" fill="url(#paint8_linear_428_643)"/>
<path d="M243.771 234.828C218.754 259.845 178.192 259.845 153.174 234.826C128.155 209.808 128.155 169.246 153.172 144.229L194.522 102.879C231.18 66.2212 224.327 132.684 239.822 148.178C255.316 163.673 320.724 157.875 285.121 193.478L243.771 234.828Z" fill="#A8A8A8"/>
<path d="M148.229 149.172C173.246 124.154 213.808 124.155 238.826 149.173C263.845 174.192 263.845 214.754 238.828 239.771L197.478 281.121C160.82 317.779 167.673 251.316 152.178 235.822C136.684 220.327 71.2756 226.125 106.879 190.522L148.229 149.172Z" fill="url(#paint9_linear_428_643)"/>
<path d="M148.229 149.172C173.246 124.154 213.808 124.155 238.826 149.173C263.845 174.192 263.845 214.754 238.828 239.771L197.478 281.121C160.82 317.779 167.673 251.316 152.178 235.822C136.684 220.327 71.2756 226.125 106.879 190.522L148.229 149.172Z" fill="#A8A8A8"/>
<path d="M243.771 234.828C218.754 259.845 178.192 259.845 153.174 234.826C128.155 209.808 128.155 169.246 153.172 144.229L194.522 102.879C231.18 66.2212 224.327 132.684 239.822 148.178C255.316 163.673 320.724 157.875 285.121 193.478L243.771 234.828Z" fill="url(#paint10_linear_428_643)"/>
<path d="M243.771 234.828C218.754 259.845 178.192 259.845 153.174 234.826C128.155 209.808 128.155 169.246 153.172 144.229L194.522 102.879C231.18 66.2212 224.327 132.684 239.822 148.178C255.316 163.673 320.724 157.875 285.121 193.478L243.771 234.828Z" fill="#A8A8A8"/>
<path d="M148.229 149.172C173.246 124.154 213.808 124.155 238.826 149.173C263.845 174.192 263.845 214.754 238.828 239.771L197.478 281.121C160.82 317.779 167.673 251.316 152.178 235.822C136.684 220.327 71.2756 226.125 106.879 190.522L148.229 149.172Z" fill="url(#paint11_linear_428_643)"/>
<path d="M148.229 149.172C173.246 124.154 213.808 124.155 238.826 149.173C263.845 174.192 263.845 214.754 238.828 239.771L197.478 281.121C160.82 317.779 167.673 251.316 152.178 235.822C136.684 220.327 71.2756 226.125 106.879 190.522L148.229 149.172Z" fill="#A8A8A8"/>
<path d="M153.172 239.771C128.155 214.754 128.155 174.192 153.174 149.173C178.192 124.155 218.754 124.154 243.771 149.172L285.121 190.522C321.779 227.18 255.316 220.327 239.822 235.822C224.327 251.316 230.125 316.724 194.522 281.121L153.172 239.771Z" fill="url(#paint12_linear_428_643)"/>
<path d="M153.172 239.771C128.155 214.754 128.155 174.192 153.174 149.173C178.192 124.155 218.754 124.154 243.771 149.172L285.121 190.522C321.779 227.18 255.316 220.327 239.822 235.822C224.327 251.316 230.125 316.724 194.522 281.121L153.172 239.771Z" fill="#A8A8A8"/>
<path d="M238.828 144.229C263.845 169.246 263.845 209.808 238.826 234.826C213.808 259.845 173.246 259.845 148.229 234.828L106.879 193.478C70.2212 156.82 136.684 163.673 152.178 148.178C167.673 132.684 161.875 67.2756 197.478 102.879L238.828 144.229Z" fill="url(#paint13_linear_428_643)"/>
<path d="M238.828 144.229C263.845 169.246 263.845 209.808 238.826 234.826C213.808 259.845 173.246 259.845 148.229 234.828L106.879 193.478C70.2212 156.82 136.684 163.673 152.178 148.178C167.673 132.684 161.875 67.2756 197.478 102.879L238.828 144.229Z" fill="#A8A8A8"/>
<path d="M153.172 239.771C128.155 214.754 128.155 174.192 153.174 149.173C178.192 124.155 218.754 124.154 243.771 149.172L285.121 190.522C321.779 227.18 255.316 220.327 239.822 235.822C224.327 251.316 230.125 316.724 194.522 281.121L153.172 239.771Z" fill="url(#paint14_linear_428_643)"/>
<path d="M153.172 239.771C128.155 214.754 128.155 174.192 153.174 149.173C178.192 124.155 218.754 124.154 243.771 149.172L285.121 190.522C321.779 227.18 255.316 220.327 239.822 235.822C224.327 251.316 230.125 316.724 194.522 281.121L153.172 239.771Z" fill="#A8A8A8"/>
<path d="M238.828 144.229C263.845 169.246 263.845 209.808 238.826 234.826C213.808 259.845 173.246 259.845 148.229 234.828L106.879 193.478C70.2212 156.82 136.684 163.673 152.178 148.178C167.673 132.684 161.875 67.2756 197.478 102.879L238.828 144.229Z" fill="url(#paint15_linear_428_643)"/>
<path d="M238.828 144.229C263.845 169.246 263.845 209.808 238.826 234.826C213.808 259.845 173.246 259.845 148.229 234.828L106.879 193.478C70.2212 156.82 136.684 163.673 152.178 148.178C167.673 132.684 161.875 67.2756 197.478 102.879L238.828 144.229Z" fill="#A8A8A8"/>
</g>
<defs>
<filter id="filter0_d_428_643" x="0" y="0" width="392" height="392" filterUnits="userSpaceOnUse" color-interpolation-filters="sRGB">
<feFlood flood-opacity="0" result="BackgroundImageFix"/>
<feColorMatrix in="SourceAlpha" type="matrix" values="0 0 0 0 0 0 0 0 0 0 0 0 0 0 0 0 0 0 127 0" result="hardAlpha"/>
<feOffset dy="4"/>
<feGaussianBlur stdDeviation="48"/>
<feComposite in2="hardAlpha" operator="out"/>
<feColorMatrix type="matrix" values="0 0 0 0 0 0 0 0 0 0 0 0 0 0 0 0 0 0 0.25 0"/>
<feBlend mode="normal" in2="BackgroundImageFix" result="effect1_dropShadow_428_643"/>
<feBlend mode="normal" in="SourceGraphic" in2="effect1_dropShadow_428_643" result="shape"/>
</filter>
<linearGradient id="paint0_linear_428_643" x1="196" y1="292" x2="196" y2="92" gradientUnits="userSpaceOnUse">
<stop stop-color="#276EED"/>
<stop offset="1" stop-color="#29CAED"/>
</linearGradient>
<linearGradient id="paint1_linear_428_643" x1="196" y1="292" x2="196" y2="92" gradientUnits="userSpaceOnUse">
<stop stop-color="#276EED"/>
<stop offset="1" stop-color="#29CAED"/>
</linearGradient>
<linearGradient id="paint2_linear_428_643" x1="196" y1="292" x2="196" y2="92" gradientUnits="userSpaceOnUse">
<stop stop-color="#276EED"/>
<stop offset="1" stop-color="#29CAED"/>
</linearGradient>
<linearGradient id="paint3_linear_428_643" x1="196" y1="292" x2="196" y2="92" gradientUnits="userSpaceOnUse">
<stop stop-color="#276EED"/>
<stop offset="1" stop-color="#29CAED"/>
</linearGradient>
<linearGradient id="paint4_linear_428_643" x1="196" y1="292" x2="196" y2="92" gradientUnits="userSpaceOnUse">
<stop stop-color="#276EED"/>
<stop offset="1" stop-color="#29CAED"/>
</linearGradient>
<linearGradient id="paint5_linear_428_643" x1="196" y1="292" x2="196" y2="92" gradientUnits="userSpaceOnUse">
<stop stop-color="#276EED"/>
<stop offset="1" stop-color="#29CAED"/>
</linearGradient>
<linearGradient id="paint6_linear_428_643" x1="196" y1="292" x2="196" y2="92" gradientUnits="userSpaceOnUse">
<stop stop-color="#276EED"/>
<stop offset="1" stop-color="#29CAED"/>
</linearGradient>
<linearGradient id="paint7_linear_428_643" x1="196" y1="292" x2="196" y2="92" gradientUnits="userSpaceOnUse">
<stop stop-color="#276EED"/>
<stop offset="1" stop-color="#29CAED"/>
</linearGradient>
<linearGradient id="paint8_linear_428_643" x1="196" y1="292" x2="196" y2="92" gradientUnits="userSpaceOnUse">
<stop stop-color="#276EED"/>
<stop offset="1" stop-color="#29CAED"/>
</linearGradient>
<linearGradient id="paint9_linear_428_643" x1="196" y1="292" x2="196" y2="92" gradientUnits="userSpaceOnUse">
<stop stop-color="#276EED"/>
<stop offset="1" stop-color="#29CAED"/>
</linearGradient>
<linearGradient id="paint10_linear_428_643" x1="196" y1="292" x2="196" y2="92" gradientUnits="userSpaceOnUse">
<stop stop-color="#276EED"/>
<stop offset="1" stop-color="#29CAED"/>
</linearGradient>
<linearGradient id="paint11_linear_428_643" x1="196" y1="292" x2="196" y2="92" gradientUnits="userSpaceOnUse">
<stop stop-color="#276EED"/>
<stop offset="1" stop-color="#29CAED"/>
</linearGradient>
<linearGradient id="paint12_linear_428_643" x1="196" y1="292" x2="196" y2="92" gradientUnits="userSpaceOnUse">
<stop stop-color="#276EED"/>
<stop offset="1" stop-color="#29CAED"/>
</linearGradient>
<linearGradient id="paint13_linear_428_643" x1="196" y1="292" x2="196" y2="92" gradientUnits="userSpaceOnUse">
<stop stop-color="#276EED"/>
<stop offset="1" stop-color="#29CAED"/>
</linearGradient>
<linearGradient id="paint14_linear_428_643" x1="196" y1="292" x2="196" y2="92" gradientUnits="userSpaceOnUse">
<stop stop-color="#276EED"/>
<stop offset="1" stop-color="#29CAED"/>
</linearGradient>
<linearGradient id="paint15_linear_428_643" x1="196" y1="292" x2="196" y2="92" gradientUnits="userSpaceOnUse">
<stop stop-color="#276EED"/>
<stop offset="1" stop-color="#29CAED"/>
</linearGradient>
</defs>
</svg>
