<svg width="674" height="765" viewBox="0 0 674 765" fill="none" xmlns="http://www.w3.org/2000/svg">
<path d="M0.649353 336.504C0.649353 150.658 151.313 0 337.166 0C523.019 0 673.682 150.658 673.682 336.504V643.683C673.682 916 452.271 643.683 337.166 643.683C222.061 643.683 0.649353 908.167 0.649353 643.683V336.504Z" fill="#ED9D24"/>
<path d="M388 541.116C388 565.905 365.167 586 337 586C308.833 586 286 565.905 286 541.116L286 500.143C286 463.821 319.556 500.143 337 500.143C354.444 500.143 388 464.866 388 500.143L388 541.116Z" fill="white"/>
<g filter="url(#filter0_d_428_541)">
<ellipse cx="222.5" cy="425.5" rx="49.5" ry="92.5" fill="white"/>
</g>
<g filter="url(#filter1_d_428_541)">
<ellipse cx="444.5" cy="425.5" rx="49.5" ry="92.5" fill="white"/>
</g>
<defs>
<filter id="filter0_d_428_541" x="13.8" y="177.8" width="417.4" height="503.4" filterUnits="userSpaceOnUse" color-interpolation-filters="sRGB">
<feFlood flood-opacity="0" result="BackgroundImageFix"/>
<feColorMatrix in="SourceAlpha" type="matrix" values="0 0 0 0 0 0 0 0 0 0 0 0 0 0 0 0 0 0 127 0" result="hardAlpha"/>
<feOffset dy="4"/>
<feGaussianBlur stdDeviation="79.6"/>
<feComposite in2="hardAlpha" operator="out"/>
<feColorMatrix type="matrix" values="0 0 0 0 1 0 0 0 0 1 0 0 0 0 1 0 0 0 0.25 0"/>
<feBlend mode="normal" in2="BackgroundImageFix" result="effect1_dropShadow_428_541"/>
<feBlend mode="normal" in="SourceGraphic" in2="effect1_dropShadow_428_541" result="shape"/>
</filter>
<filter id="filter1_d_428_541" x="235.8" y="177.8" width="417.4" height="503.4" filterUnits="userSpaceOnUse" color-interpolation-filters="sRGB">
<feFlood flood-opacity="0" result="BackgroundImageFix"/>
<feColorMatrix in="SourceAlpha" type="matrix" values="0 0 0 0 0 0 0 0 0 0 0 0 0 0 0 0 0 0 127 0" result="hardAlpha"/>
<feOffset dy="4"/>
<feGaussianBlur stdDeviation="79.6"/>
<feComposite in2="hardAlpha" operator="out"/>
<feColorMatrix type="matrix" values="0 0 0 0 1 0 0 0 0 1 0 0 0 0 1 0 0 0 0.25 0"/>
<feBlend mode="normal" in2="BackgroundImageFix" result="effect1_dropShadow_428_541"/>
<feBlend mode="normal" in="SourceGraphic" in2="effect1_dropShadow_428_541" result="shape"/>
</filter>
</defs>
</svg>
